<?xml version="1.0" standalone="no"?>
<!DOCTYPE svg PUBLIC "-//W3C//DTD SVG 20010904//EN"
 "http://www.w3.org/TR/2001/REC-SVG-20010904/DTD/svg10.dtd">
<svg version="1.0" xmlns="http://www.w3.org/2000/svg"
 width="559.000000pt" height="679.000000pt" viewBox="0 0 559.000000 679.000000"
 preserveAspectRatio="xMidYMid meet">
<metadata>
Created by potrace 1.11, written by Peter Selinger 2001-2013
</metadata>
<g transform="translate(0.000000,679.000000) scale(0.100000,-0.100000)"
fill="#000000" stroke="none">
<path d="M0 3395 l0 -3395 565 0 c391 0 565 3 565 11 0 5 5 7 11 3 6 -3 15 0
20 7 11 18 12 70 0 67 -15 -5 -12 10 14 63 13 29 22 55 20 59 -7 12 61 105 75
102 7 -1 18 2 25 8 10 8 15 3 23 -20 6 -17 9 -37 6 -45 -9 -22 6 -18 27 7 22
24 25 17 6 -12 -10 -17 -9 -22 2 -29 8 -5 9 -11 3 -15 -6 -3 -8 -15 -5 -26 3
-11 10 -17 16 -13 16 10 47 11 53 2 2 -4 -10 -11 -28 -15 -29 -6 -30 -8 -13
-15 15 -6 16 -8 4 -8 -16 -1 -29 -21 -29 -44 0 -7 7 -3 15 7 8 11 15 15 15 9
0 -6 11 -14 25 -17 14 -4 25 -11 25 -17 0 -6 -7 -6 -21 1 -26 15 -34 7 -20
-19 7 -13 8 -22 1 -26 -13 -8 -13 -25 0 -25 6 0 10 5 10 11 0 15 26 39 34 32
3 -4 6 0 6 8 0 8 9 21 20 29 11 8 20 21 20 30 -1 12 -3 12 -14 -2 -17 -23 -51
-24 -42 -2 4 9 1 23 -5 31 -10 11 -8 12 14 4 20 -8 26 -7 24 2 -1 7 6 11 16 9
10 -2 17 3 17 13 0 8 4 15 8 15 5 0 16 26 26 58 15 50 85 155 86 128 0 -5 9
-1 20 9 19 18 20 17 20 -1 0 -11 -9 -25 -20 -32 -11 -7 -17 -18 -14 -27 4 -10
0 -15 -10 -15 -22 0 -38 -45 -30 -86 7 -37 13 -41 32 -22 10 10 11 6 6 -18
l-6 -30 46 1 c50 1 70 18 80 69 4 16 9 26 14 22 7 -7 8 -11 11 -38 1 -9 4 -8
11 2 16 23 32 -7 26 -48 -4 -27 -2 -33 9 -28 12 4 15 -4 15 -34 0 -42 12 -52
29 -23 10 17 10 17 11 1 0 -10 4 -18 9 -18 5 0 11 -12 13 -27 4 -26 5 -26 13
-8 17 40 40 45 49 10 6 -22 12 -25 47 -25 22 0 38 4 34 9 -3 5 0 13 7 18 24
14 38 11 38 -8 0 -16 7 -19 49 -19 32 0 55 6 65 16 15 14 16 14 16 0 0 -15
160 -16 1690 -16 l1690 0 0 3395 0 3395 -2795 0 -2795 0 0 -3395z m530 2877
c0 -20 -5 -57 -11 -82 -10 -46 -5 -90 11 -90 5 0 12 16 16 35 7 37 27 65 46
65 6 0 4 -8 -5 -18 -9 -10 -20 -34 -24 -53 -6 -31 -5 -33 11 -20 9 8 19 11 22
8 10 -9 -6 -28 -32 -37 -13 -5 -24 -18 -24 -28 0 -21 -29 -64 -30 -44 0 9 -8
7 -26 -7 -44 -34 -89 -20 -52 17 6 6 9 15 5 18 -5 6 -16 3 -82 -21 -19 -7 -19
-7 -2 7 18 13 18 15 2 28 -13 11 -18 11 -25 1 -11 -20 -43 1 -46 30 -3 33 51
116 81 123 25 6 26 8 90 79 48 54 75 50 75 -11z m9 -2329 c-12 -79 -9 -113 9
-113 5 0 12 16 15 36 6 38 23 64 40 64 5 0 2 -8 -7 -19 -9 -10 -20 -36 -23
-57 l-6 -39 21 19 c12 11 22 14 22 8 0 -6 -13 -18 -30 -27 -18 -9 -30 -23 -30
-36 0 -11 -8 -23 -17 -26 -10 -4 -29 -15 -42 -25 -26 -20 -61 -24 -61 -7 0 6
5 20 11 31 10 19 9 21 -17 15 -16 -3 -38 -9 -49 -12 -15 -5 -17 -5 -6 3 12 9
12 13 2 26 -16 20 -45 21 -38 2 4 -11 1 -11 -17 -3 -17 8 -21 17 -18 41 7 44
52 104 89 118 17 6 36 22 42 35 6 13 17 23 24 23 7 0 24 14 36 31 23 31 24 31
42 12 18 -17 18 -25 8 -100z m1651 -608 c0 -13 6 -26 13 -29 6 -3 1 -3 -12 0
l-24 6 21 -35 c27 -43 27 -50 0 -62 -13 -6 -29 -22 -36 -37 -13 -29 -39 -40
-28 -13 3 8 2 15 -3 15 -5 0 -12 -11 -15 -24 -4 -18 -11 -23 -26 -19 -11 3
-20 1 -20 -5 0 -14 29 -24 51 -17 14 5 19 1 19 -12 0 -11 -4 -23 -9 -28 -13
-14 -17 -57 -7 -74 6 -9 3 -18 -8 -26 -10 -8 -18 -33 -21 -71 -3 -32 -10 -63
-15 -69 -5 -7 -10 -34 -11 -61 -2 -30 -13 -73 -30 -109 -29 -62 -41 -52 -14
11 8 20 13 40 10 44 -3 5 1 28 10 52 18 52 20 121 4 116 -7 -2 -13 -16 -15
-32 -1 -15 -8 -33 -14 -40 -5 -8 -8 -20 -4 -29 3 -8 0 -18 -7 -23 -9 -5 -11 3
-7 32 4 21 9 48 14 59 7 20 7 20 -15 0 l-23 -20 13 30 c7 17 16 34 21 39 4 6
8 19 8 30 1 19 2 19 13 5 17 -23 35 -13 29 16 -2 14 0 25 5 25 15 0 12 63 -4
78 -7 7 -13 21 -12 30 0 11 2 12 6 5 7 -18 23 -16 23 2 0 21 -23 19 -54 -6
-27 -21 -37 -11 -10 11 22 19 37 50 24 50 -5 0 -11 -8 -11 -17 -1 -17 -2 -17
-6 -1 -4 14 -8 16 -24 8 -13 -7 -19 -7 -19 0 0 5 5 10 10 10 6 0 10 6 10 14 0
24 44 93 58 89 6 -3 12 3 12 14 0 10 9 33 21 52 17 29 24 33 54 29 25 -3 35 0
35 10 0 7 5 10 10 7 6 -3 10 -17 10 -30z"/>
</g>
</svg>
