<?xml version="1.0" encoding="UTF-8" ?>
<!DOCTYPE svg PUBLIC "-//W3C//DTD SVG 1.1//EN" "http://www.w3.org/Graphics/SVG/1.1/DTD/svg11.dtd">
<svg width="100%" height="100%" viewBox="0 0 800 500" version="1.1" xmlns="http://www.w3.org/2000/svg">
<path fill="#ffffff" stroke="#ffffff" stroke-width="0.09375" opacity="1.00" d=" M 367.8 92.9 C 427.1 69.5 484.7 41.8 542.1 14.1 C 531.2 20.7 519.8 26.5 508.7 32.7 C 459.9 58.9 410.8 84.6 360.4 107.4 C 344.6 114.6 327.9 120.3 314.1 131.1 C 306.1 137.4 299.2 145.9 297.6 156.2 C 296.6 162.5 296.8 169.7 301.4 174.5 C 306.7 180.0 314.7 181.5 322.0 182.0 C 335.2 182.6 348.5 180.5 361.3 177.2 C 399.6 164.9 438.9 155.8 478.6 149.8 C 501.0 146.5 523.5 144.8 545.9 142.4 C 574.3 139.4 602.7 136.3 631.0 133.0 C 650.4 131.8 669.8 132.7 689.0 135.2 C 708.5 137.9 727.9 142.6 745.7 151.2 C 759.9 158.1 773.1 167.8 781.8 181.2 C 791.9 196.4 795.2 215.4 793.1 233.4 C 791.4 247.2 785.2 260.5 775.7 270.7 C 764.4 283.0 749.4 291.2 734.0 297.1 C 713.1 305.1 690.9 309.0 668.7 311.4 C 642.2 314.0 615.6 314.1 589.0 312.3 C 542.7 311.2 496.3 311.4 449.9 313.5 C 420.1 315.1 390.2 317.1 360.7 322.5 C 333.4 327.5 305.9 332.3 278.7 338.0 C 281.4 347.5 284.8 356.8 287.6 366.3 C 301.7 410.6 314.7 455.3 327.9 500.0 L 294.1 500.0 C 283.1 447.2 272.2 394.4 259.2 342.1 C 247.3 344.4 236.0 348.7 224.1 351.1 C 178.7 362.1 133.4 374.2 88.7 387.9 C 71.5 392.9 54.6 398.7 37.4 403.7 C 109.5 377.1 182.9 353.9 257.4 334.9 C 254.3 322.2 251.1 309.6 247.1 297.1 C 189.5 312.5 132.5 330.5 77.6 353.9 C 73.9 307.0 67.0 260.3 56.8 214.4 C 49.0 180.6 39.6 147.1 30.2 113.7 C 20.8 80.7 11.2 47.8 1.3 14.9 C 3.4 18.5 5.1 22.3 7.0 26.0 C 30.9 75.3 52.6 125.7 70.3 177.5 C 80.9 208.9 91.7 240.2 101.4 271.8 C 104.0 280.4 106.5 289.1 108.3 297.9 C 113.0 297.9 117.5 296.2 122.0 295.0 C 160.4 284.6 199.2 276.0 238.2 268.7 C 232.5 248.9 225.6 229.4 219.1 209.9 C 207.0 174.1 194.1 138.5 181.2 102.9 C 205.9 157.0 229.6 211.5 253.0 266.1 C 329.6 252.2 407.4 247.2 485.0 243.2 C 538.9 240.4 592.9 239.0 646.9 237.4 C 631.3 239.4 615.6 240.5 599.9 242.2 C 549.2 247.3 498.6 253.0 448.1 259.7 C 386.1 268.2 323.9 277.0 263.3 293.0 C 267.6 305.4 271.9 317.8 276.1 330.3 C 316.0 321.0 356.3 312.9 397.0 308.0 C 448.4 301.1 500.1 297.4 551.1 288.4 C 571.5 284.6 591.9 280.0 611.0 272.0 C 621.8 267.2 632.4 261.3 640.3 252.3 C 647.7 243.9 651.8 232.3 650.2 221.1 C 648.6 211.1 641.0 203.4 632.8 198.2 C 619.0 189.5 602.9 185.2 587.0 182.3 C 560.2 177.7 532.9 177.4 505.9 179.2 C 452.5 183.1 400.4 196.6 348.1 207.3 C 331.6 210.6 314.9 213.9 298.1 214.6 C 291.2 214.9 284.3 214.7 277.7 213.1 C 274.8 212.4 272.6 210.3 270.0 209.1 C 260.8 204.5 252.0 198.3 246.5 189.5 C 242.4 183.1 240.9 175.0 242.8 167.6 C 245.1 158.3 251.4 150.7 258.4 144.3 C 272.6 131.6 289.9 122.9 307.4 115.4 C 327.1 106.7 347.8 100.9 367.8 92.9 Z" />
<path fill="#ffffff" stroke="#ffffff" stroke-width="0.09375" opacity="1.00" d=" M 162.9 169.9 C 166.8 173.1 169.7 177.3 172.8 181.1 C 183.2 194.7 192.3 210.5 192.9 228.0 C 193.3 232.8 191.0 237.2 189.6 241.6 C 187.6 247.6 183.0 252.3 178.4 256.4 C 175.3 260.3 170.3 261.6 166.3 264.3 C 161.5 267.7 155.4 267.4 150.0 268.6 C 143.8 268.8 137.1 269.9 131.6 266.4 C 128.6 264.4 125.3 262.9 122.7 260.3 C 119.5 256.4 115.9 252.8 113.9 248.0 C 110.2 238.5 107.6 228.3 107.6 218.0 C 108.0 208.3 107.4 198.6 109.0 189.0 C 110.0 183.0 110.8 176.9 112.5 171.1 C 111.8 186.2 112.9 201.6 116.4 216.4 C 119.0 226.5 122.7 237.1 130.9 244.1 C 136.8 249.2 145.4 250.4 152.8 248.5 C 161.7 246.2 170.7 241.7 175.7 233.8 C 180.6 226.5 181.0 217.2 179.6 208.8 C 177.1 194.7 170.5 181.9 162.9 169.9 Z" />
</svg>
